<svg 
          width="27" 
          height="27" fill="none" 
          xmlns="http://www.w3.org/2000/svg">
          <path d="M 23.82774314121583 14.816249549388885 C 23.87981579204156 14.394374549388885 23.914531225600903 13.95562501810491 23.914531225600903 13.5 C 23.914531225600903 13.04437498189509 23.87981539437078 12.605625450611115 23.81038519326981 12.183750450611115 L 26.743810527001163 9.956250160932541 C 27.00417379729528 9.753750165458769 27.073604657947783 9.382499777711928 26.917386695771313 9.095624774694443 L 24.140177927519062 4.421249806880951 C 23.966602418300447 4.11749979481101 23.602095922002352 4.016250098822638 23.289659997649412 4.1175000965595245 L 19.835506157607607 5.467499613761902 C 19.106489052513613 4.927499625831842 18.34275781033167 4.488750069402158 17.492237811280734 4.151250064373016 L 16.97151096031531 0.5737498551607132 C 16.919438309489582 0.2362498501315713 16.624360614361997 0 16.277209595924763 0 L 10.722792059420266 0 C 10.375641040983034 0 10.097921293801464 0.2362498501315713 10.045848642975736 0.5737498551607132 L 9.525121792010312 4.151250064373016 C 8.674601792959376 4.488750069402158 7.893512188995157 4.944374609738588 7.181852618010927 5.467499613761902 L 3.72769919180538 4.1175000965595245 C 3.4152632674524406 3.9993750960566103 3.050755322727446 4.11749979481101 2.8771798135088296 4.421249806880951 L 0.09997141382949726 9.095624774694443 C -0.07360409538911919 9.399374786764383 -0.004173642106680364 9.753750165458769 0.27354716229719955 9.956250160932541 L 3.206973375430597 12.183750450611115 C 3.137543174329627 12.605625450611115 3.085470222825994 13.061250016093254 3.085470222825994 13.5 C 3.085470222825994 13.938749983906746 3.1201852263836063 14.394374549388885 3.1896154274845765 14.816249549388885 L 0.25618921435117925 17.043750643730164 C -0.004174055942936961 17.246250639203936 -0.07360408245673618 17.617499417625368 0.08261387971973354 17.904374420642853 L 2.859821865562809 22.57875019311905 C 3.033397374781426 22.88250020518899 3.397906147178934 22.983750705840066 3.710342071531873 22.88250070810318 L 7.164494670064906 21.532500386238098 C 7.893511775158899 22.072500374168158 8.657243845013355 22.51124993059784 9.507763844064291 22.848749935626984 L 10.028490695029717 26.426249742507935 C 10.097920896130686 26.763749747537076 10.375641040983034 27 10.722792059420266 27 L 16.277209595924763 27 C 16.624360614361997 27 16.919437911818804 26.763749747537076 16.95415301236929 26.426249742507935 L 17.474879863334714 22.848749935626984 C 18.325399862385648 22.51124993059784 19.106490294022386 22.05562539026141 19.818149865006614 21.532500386238098 L 23.27230204970339 22.88250070810318 C 23.58473797405633 23.000625708606094 23.94924778104448 22.88250020518899 24.122823290263096 22.57875019311905 L 26.900028747825292 17.904374420642853 C 27.073604257043907 17.600624408572912 27.004176694149074 17.246250639203936 26.726455889745193 17.043750643730164 L 23.82774314121583 14.816249549388885 L 23.82774314121583 14.816249549388885 Z M 13.500000827672514 18.5625 C 10.636005009625832 18.5625 8.292735628708318 16.284374959766865 8.292735628708318 13.5 C 8.292735628708318 10.715625040233135 10.636005009625832 8.4375 13.500000827672514 8.4375 C 16.363996645719197 8.4375 18.70726602663671 10.715625040233135 18.70726602663671 13.5 C 18.70726602663671 16.284374959766865 16.363996645719197 18.5625 13.500000827672514 18.5625 Z" fill="rgb(0,0,0)"/>
        </svg>