<svg 
          width="27" 
          height="27" fill="none" 
          xmlns="http://www.w3.org/2000/svg">
          <path d="M 13.5 0 C 6.048000025749206 0 0 6.048000025749206 0 13.5 C 0 20.951999974250793 6.048000025749206 27 13.5 27 C 20.951999974250793 27 27 20.951999974250793 27 13.5 C 27 6.048000025749206 20.951999974250793 0 13.5 0 Z M 13.5 4.050000000000001 C 15.74099995493889 4.050000000000001 17.55 5.859000045061112 17.55 8.100000000000001 C 17.55 10.34099995493889 15.74099995493889 12.15 13.5 12.15 C 11.25900004506111 12.15 9.450000000000001 10.34099995493889 9.450000000000001 8.100000000000001 C 9.450000000000001 5.859000045061112 11.25900004506111 4.050000000000001 13.5 4.050000000000001 Z M 13.5 23.220001029968262 C 10.125 23.220001029968262 7.141499948501587 21.491999459266665 5.4 18.872999382019046 C 5.4404999990947545 16.186499369144443 10.8 14.71499948501587 13.5 14.71499948501587 C 16.186500012874603 14.71499948501587 21.559500000905246 16.186499369144443 21.6 18.872999382019046 C 19.858500051498414 21.491999459266665 16.875 23.220001029968262 13.5 23.220001029968262 Z" fill="rgb(0,0,0)"/>
        </svg>