<svg 
          width="27" 
          height="27" fill="none" 
          xmlns="http://www.w3.org/2000/svg">
          <path d="M 19.575000000000003 0 C 17.225999987125398 0 14.971500045061111 1.1918258549157361 13.5 3.0752045202602516 C 12.028499954938889 1.1918258549157361 9.774000012874604 0 7.425000000000001 0 C 3.2670001029968265 0 0 3.560762981014345 0 8.092642883536879 C 0 13.654495586852704 4.590000128746032 18.186377243408344 11.542500257492065 25.072480389909867 L 13.5 27 L 15.457499742507936 25.057766156983625 C 22.40999987125397 18.186376541795102 27 13.654495586852704 27 8.092642883536879 C 27 3.560762981014345 23.732999897003175 0 19.575000000000003 0 Z M 13.635000514984132 22.88010739360035 L 13.5 23.027246916409798 L 13.36499948501587 22.88010739360035 C 6.9389991760253915 16.538418236331403 2.7 12.344959025786626 2.7 8.092642883536879 C 2.7 5.149863653159832 4.7250000000000005 2.942779230377047 7.425000000000001 2.942779230377047 C 9.503999948501587 2.942779230377047 11.528999626636505 4.399455138849261 12.244499588012696 6.41525891867367 L 14.768999433517457 6.41525891867367 C 15.47099940776825 4.399455138849261 17.496000051498417 2.942779230377047 19.575000000000003 2.942779230377047 C 22.275000000000002 2.942779230377047 24.3 5.149863653159832 24.3 8.092642883536879 C 24.3 12.344959025786626 20.06100082397461 16.538418236331403 13.635000514984132 22.88010739360035 Z" fill="rgb(0,0,0)"/>
        </svg>