<svg 
          width="14.666666030883789" 
          height="8" fill="none" 
          xmlns="http://www.w3.org/2000/svg">
          <path d="M 14.666666030883789 1.3333333333333333 C 14.666666030883789 2.0666666825612383 14.06666607278766 2.6666666666666665 13.333332755348899 2.6666666666666665 C 13.213332755782387 2.6666666666666665 13.099999277158224 2.653333537280559 12.993332617499618 2.6200002034505205 L 10.61999974308591 4.986666361490885 C 10.653333075470988 5.093333025773366 10.66666620427912 5.2133333285649615 10.66666620427912 5.333333333333333 C 10.66666620427912 6.066666682561238 10.06666624618299 6.666666666666666 9.333332928744229 6.666666666666666 C 8.599999611305467 6.666666666666666 7.99999965320934 6.066666682561238 7.99999965320934 5.333333333333333 C 7.99999965320934 5.2133333285649615 8.01333278201747 5.093333025773366 8.046666114402548 4.986666361490885 L 6.346666696721844 3.2866668701171875 C 6.240000037063238 3.320000203947226 6.119999739473516 3.333333333333333 5.999999739907005 3.333333333333333 C 5.8799997403404936 3.333333333333333 5.759999442750771 3.320000203947226 5.653332783092165 3.2866668701171875 L 2.6199997719851456 6.3266665140787754 C 2.653333104370223 6.433333178361257 2.66666655106978 6.5466666618982945 2.66666655106978 6.666666666666666 C 2.66666655106978 7.400000015894571 2.0666665929736507 8 1.33333327553489 8 C 0.5999999580961292 8 0 7.400000015894571 0 6.666666666666666 C 0 5.933333317438761 0.5999999580961292 5.333333333333333 1.33333327553489 5.333333333333333 C 1.4533332751014014 5.333333333333333 1.5666665947798528 5.34666646271944 1.6733332544384583 5.379999796549479 L 4.713332925565323 2.3466669718424478 C 4.679999593180246 2.240000307559967 4.666666464372114 2.1200000047683716 4.666666464372114 2 C 4.666666464372114 1.2666666507720947 5.266666422468244 0.6666666666666666 5.999999739907005 0.6666666666666666 C 6.7333330573457655 0.6666666666666666 7.3333330154418945 1.2666666507720947 7.3333330154418945 2 C 7.3333330154418945 2.1200000047683716 7.319999886633763 2.240000307559967 7.2866665542486855 2.3466669718424478 L 8.98666597192939 4.0466664632161455 C 9.093332631587996 4.0133331293861065 9.213332929177717 4 9.333332928744229 4 C 9.45333292831074 4 9.573333225900463 4.0133331293861065 9.679999885559068 4.0466664632161455 L 12.046665941007218 1.6733334859212239 C 12.01333260862214 1.566666821638743 11.99999947981401 1.4533333381017048 11.99999947981401 1.3333333333333333 C 11.99999947981401 0.599999984105428 12.599999437910137 0 13.333332755348899 0 C 14.06666607278766 0 14.666666030883789 0.599999984105428 14.666666030883789 1.3333333333333333 Z" fill="rgb(255,255,255)"/>
        </svg>