<svg 
          width="16" 
          height="16" fill="none" 
          xmlns="http://www.w3.org/2000/svg">
          <path d="M 11.392000834147135 4.608000437418619 C 10.456000804901123 3.672000408172607 9.232000033060709 3.2000001271565752 8 3.2000001271565752 L 8 8 L 4.608000437418619 11.392000834147135 C 6.480000495910644 13.26400089263916 9.520000298817951 13.26400089263916 11.40000025431315 11.392000834147135 C 13.272000312805176 9.52000077565511 13.272000789642334 6.480000495910644 11.392000834147135 4.608000437418619 Z M 8 0 C 3.583999951680502 0 0 3.583999951680502 0 8 C 0 12.416000048319498 3.583999951680502 16 8 16 C 12.416000048319498 16 16 12.416000048319498 16 8 C 16 3.583999951680502 12.416000048319498 0 8 0 Z M 8 14.40000025431315 C 4.4639997482299805 14.40000025431315 1.6000000635782876 11.53600025177002 1.6000000635782876 8 C 1.6000000635782876 4.4639997482299805 4.4639997482299805 1.6000000635782876 8 1.6000000635782876 C 11.53600025177002 1.6000000635782876 14.40000025431315 4.4639997482299805 14.40000025431315 8 C 14.40000025431315 11.53600025177002 11.53600025177002 14.40000025431315 8 14.40000025431315 Z" fill="rgb(255,255,255)"/>
        </svg>