<svg 
          width="15" 
          height="15" fill="none" 
          xmlns="http://www.w3.org/2000/svg">
          <path d="M 14.175000190734863 10.3166667620341 C 13.150000174840292 10.3166667620341 12.158332963784536 10.149999757607779 11.233332951863607 9.84999974568685 C 10.941666290163994 9.749999747922024 10.61666689813137 9.825000340739887 10.391666889190674 10.050000349680584 L 9.083333015441895 11.691667238871258 C 6.724999745686849 10.566667219003042 4.516666829586029 8.44166656335195 3.3416668574015302 5.999999841054281 L 4.9666666984558105 4.616666634877523 C 5.191666707396507 4.383333300550779 5.258333173890908 4.058333312471707 5.166666507720947 3.7666666507720947 C 4.858333170413971 2.8416666388511658 4.700000286102295 1.850000023841858 4.700000286102295 0.825000007947286 C 4.700000286102295 0.3749999900658926 4.325000097354254 3.7007434154171886e-16 3.87500007947286 3.7007434154171886e-16 L 0.9916667143503826 3.7007434154171886e-16 C 0.5416666964689891 -1.1102230246251565e-15 0 0.200000007947286 0 0.825000007947286 C 0 8.56666664282481 6.441667079925537 15 14.175000190734863 15 C 14.766666839520136 15 15 14.474999755620956 15 14.016666412353516 L 15 11.141667366027832 C 15 10.691667348146439 14.625000208616257 10.3166667620341 14.175000190734863 10.3166667620341 Z" fill="rgb(29.000000171363354,191.00000381469727,115.00000074505806)"/>
        </svg>