<svg 
          width="15" 
          height="15.008333206176758" fill="none" 
          xmlns="http://www.w3.org/2000/svg">
          <path d="M 3.0166665712992353 6.500000021269249 C 4.216666618982951 8.85833324107245 6.1500000953674325 10.783332556568883 8.508333365122478 11.991665904044943 L 10.341666539510092 10.158333563217731 C 10.566666548450788 9.933333559042758 10.900000259280205 9.858332967813482 11.191666920979818 9.958332963460208 C 12.125000258286795 10.266666294236378 13.13333332538605 10.43333349381467 14.166666666666668 10.43333349381467 C 14.625000009934109 10.43333349381467 15 10.80833347593769 15 11.266666809497174 L 15 14.174999890494254 C 15 14.633333224053738 14.625000009934109 15.008333206176758 14.166666666666668 15.008333206176758 C 6.341666380564373 15.008333206176758 0 8.666666761253046 0 0.8416666408920433 C 0 0.3833333073325588 0.3749999900658926 0.00833332520953924 0.8333333333333334 0.00833332520953924 L 3.75 0.00833332520953924 C 4.208333343267441 0.00833332520953924 4.583333333333334 0.3833333073325588 4.583333333333334 0.8416666408920433 C 4.583333333333334 1.8833332854951736 4.749999741713206 2.883333204709535 5.058333079020183 3.8166665222475826 C 5.149999745190144 4.108333177769405 5.083333080013594 4.433333556328943 4.8499997456868496 4.666666885713455 L 3.0166665712992353 6.500000021269249 Z M 14.299999872843426 0.5833333607141818 L 13.708333969116211 0 L 8.333333333333334 5.250000047745492 L 8.333333333333334 1.6749999565745475 L 7.5 1.6749999565745475 L 7.5 6.675000049351717 L 12.5 6.675000049351717 L 12.5 5.841666733669213 L 9.041666984558105 5.841666733669213 L 14.299999872843426 0.5833333607141818 Z" fill="rgb(199.75000709295273,0.8322921395301819,0.8322921395301819)"/>
        </svg>