<svg 
          width="14.841666221618652" 
          height="18.333332061767578" fill="none" 
          xmlns="http://www.w3.org/2000/svg">
          <path d="M 13.174999554951986 0 L 4.841666618982951 0 C 3.9249999324480696 0 3.174999952316284 0.7499999281131874 3.174999952316284 1.6666665510697798 L 3.174999952316284 4.166666377674449 L 4.841666618982951 4.166666377674449 L 4.841666618982951 2.49999982660467 L 13.174999554951986 2.49999982660467 L 13.174999554951986 15.833332235162908 L 4.841666618982951 15.833332235162908 L 4.841666618982951 14.166665684093129 L 3.174999952316284 14.166665684093129 L 3.174999952316284 16.666665510697797 C 3.174999952316284 17.58333213365439 3.9249999324480696 18.333332061767578 4.841666618982951 18.333332061767578 L 13.174999554951986 18.333332061767578 C 14.091666241486868 18.333332061767578 14.841666221618652 17.58333213365439 14.841666221618652 16.666665510697797 L 14.841666221618652 1.6666665510697798 C 14.841666221618652 0.7499999281131874 14.091666241486868 0 13.174999554951986 0 Z M 3.183333476384481 10.391666168444068 L 1.0583333174387615 8.26666615688439 L 0 9.32499900355486 L 3.174999952316284 12.499999133023348 L 9.166666666666668 6.508333231608049 L 8.108332951863607 5.449999590209038 L 3.183333476384481 10.391666168444068 Z" fill="rgb(0,0,0)"/>
        </svg>