<svg 
          width="38.55072021484375" 
          height="34.4083251953125" fill="none" 
          xmlns="http://www.w3.org/2000/svg">
          <path d="M 0 22.938884557352868 L 3.2125599413102464 22.938884557352868 L 3.2125599413102464 11.469442278676434 L 0 11.469442278676434 L 0 22.938884557352868 Z M 4.818840026855469 26.762031983578343 L 8.031399738385517 26.762031983578343 L 8.031399738385517 7.646294852450955 L 4.818840026855469 7.646294852450955 L 4.818840026855469 26.762031983578343 Z M 35.33815774595132 11.469442278676434 L 35.33815774595132 22.938884557352868 L 38.55072021484375 22.938884557352868 L 38.55072021484375 11.469442278676434 L 35.33815774595132 11.469442278676434 Z M 30.51931955733744 26.762031983578343 L 33.73188018798828 26.762031983578343 L 33.73188018798828 7.646294852450955 L 30.51931955733744 7.646294852450955 L 30.51931955733744 26.762031983578343 Z M 26.503620147705078 0 L 12.047100067138672 0 C 10.713887667367999 0 9.637680053710938 1.2807544041927033 9.637680053710938 2.8673605696691085 L 9.637680053710938 31.540965856180993 C 9.637680053710938 33.1275720216574 10.713887667367999 34.4083251953125 12.047100067138672 34.4083251953125 L 26.503620147705078 34.4083251953125 C 27.83683254747575 34.4083251953125 28.913040161132812 33.1275720216574 28.913040161132812 31.540965856180993 L 28.913040161132812 2.8673605696691085 C 28.913040161132812 1.2807544041927033 27.83683254747575 0 26.503620147705078 0 Z M 25.70047953048197 30.58517940980382 L 12.850239765240985 30.58517940980382 L 12.850239765240985 3.8231474262254777 L 25.70047953048197 3.8231474262254777 L 25.70047953048197 30.58517940980382 Z" fill="rgb(29.000000171363354,191.00000381469727,115.00000074505806)"/>
        </svg>